<mxfile host="app.diagrams.net" modified="2024-01-24T01:35:36.735Z" agent="Mozilla/5.0 (Windows NT 10.0; Win64; x64) AppleWebKit/537.36 (KHTML, like Gecko) Chrome/120.0.0.0 Safari/537.36" etag="L-Ea3rNhsB2vT587b1BV" version="23.0.0" type="github">
  <diagram name="Page-1" id="ULKoBhirycJ3Mvhb124m">
    <mxGraphModel dx="1434" dy="780" grid="1" gridSize="10" guides="1" tooltips="1" connect="1" arrows="1" fold="1" page="1" pageScale="1" pageWidth="850" pageHeight="1100" math="0" shadow="0">
      <root>
        <mxCell id="0" />
        <mxCell id="1" parent="0" />
        <mxCell id="t1ZBYJPDc_INg5JyRCaz-2" style="edgeStyle=orthogonalEdgeStyle;rounded=0;orthogonalLoop=1;jettySize=auto;html=1;exitX=0.5;exitY=1;exitDx=0;exitDy=0;" edge="1" parent="1">
          <mxGeometry relative="1" as="geometry">
            <mxPoint x="100" y="430" as="sourcePoint" />
            <mxPoint x="100" y="430" as="targetPoint" />
          </mxGeometry>
        </mxCell>
        <mxCell id="t1ZBYJPDc_INg5JyRCaz-3" value="" style="endArrow=classic;html=1;rounded=0;exitX=1;exitY=0.5;exitDx=0;exitDy=0;" edge="1" parent="1">
          <mxGeometry width="50" height="50" relative="1" as="geometry">
            <mxPoint x="160" y="400" as="sourcePoint" />
            <mxPoint x="240" y="400" as="targetPoint" />
            <Array as="points" />
          </mxGeometry>
        </mxCell>
        <mxCell id="t1ZBYJPDc_INg5JyRCaz-4" value="User" style="rounded=1;whiteSpace=wrap;html=1;" vertex="1" parent="1">
          <mxGeometry x="40" y="370" width="120" height="60" as="geometry" />
        </mxCell>
        <mxCell id="t1ZBYJPDc_INg5JyRCaz-8" value="" style="edgeStyle=orthogonalEdgeStyle;rounded=0;orthogonalLoop=1;jettySize=auto;html=1;" edge="1" parent="1" source="t1ZBYJPDc_INg5JyRCaz-5" target="t1ZBYJPDc_INg5JyRCaz-7">
          <mxGeometry relative="1" as="geometry" />
        </mxCell>
        <mxCell id="t1ZBYJPDc_INg5JyRCaz-5" value="Mengunjungi&lt;br&gt;&amp;nbsp;Perpus" style="rounded=1;whiteSpace=wrap;html=1;" vertex="1" parent="1">
          <mxGeometry x="240" y="370" width="120" height="60" as="geometry" />
        </mxCell>
        <mxCell id="t1ZBYJPDc_INg5JyRCaz-10" value="" style="edgeStyle=orthogonalEdgeStyle;rounded=0;orthogonalLoop=1;jettySize=auto;html=1;" edge="1" parent="1" source="t1ZBYJPDc_INg5JyRCaz-7" target="t1ZBYJPDc_INg5JyRCaz-9">
          <mxGeometry relative="1" as="geometry" />
        </mxCell>
        <mxCell id="t1ZBYJPDc_INg5JyRCaz-12" value="" style="edgeStyle=orthogonalEdgeStyle;rounded=0;orthogonalLoop=1;jettySize=auto;html=1;" edge="1" parent="1" source="t1ZBYJPDc_INg5JyRCaz-7" target="t1ZBYJPDc_INg5JyRCaz-11">
          <mxGeometry relative="1" as="geometry" />
        </mxCell>
        <mxCell id="t1ZBYJPDc_INg5JyRCaz-7" value="Mengisi Form&lt;br&gt;Pengunjung" style="rounded=1;whiteSpace=wrap;html=1;" vertex="1" parent="1">
          <mxGeometry x="440" y="370" width="120" height="60" as="geometry" />
        </mxCell>
        <mxCell id="t1ZBYJPDc_INg5JyRCaz-14" value="" style="edgeStyle=orthogonalEdgeStyle;rounded=0;orthogonalLoop=1;jettySize=auto;html=1;" edge="1" parent="1" source="t1ZBYJPDc_INg5JyRCaz-9" target="t1ZBYJPDc_INg5JyRCaz-13">
          <mxGeometry relative="1" as="geometry" />
        </mxCell>
        <mxCell id="t1ZBYJPDc_INg5JyRCaz-9" value="Mencari Buku" style="rounded=1;whiteSpace=wrap;html=1;" vertex="1" parent="1">
          <mxGeometry x="440" y="230" width="120" height="60" as="geometry" />
        </mxCell>
        <mxCell id="t1ZBYJPDc_INg5JyRCaz-18" value="" style="edgeStyle=orthogonalEdgeStyle;rounded=0;orthogonalLoop=1;jettySize=auto;html=1;" edge="1" parent="1" source="t1ZBYJPDc_INg5JyRCaz-11" target="t1ZBYJPDc_INg5JyRCaz-17">
          <mxGeometry relative="1" as="geometry" />
        </mxCell>
        <mxCell id="t1ZBYJPDc_INg5JyRCaz-11" value="Meminjam Buku" style="rounded=1;whiteSpace=wrap;html=1;" vertex="1" parent="1">
          <mxGeometry x="440" y="510" width="120" height="60" as="geometry" />
        </mxCell>
        <mxCell id="t1ZBYJPDc_INg5JyRCaz-16" value="" style="edgeStyle=orthogonalEdgeStyle;rounded=0;orthogonalLoop=1;jettySize=auto;html=1;" edge="1" parent="1" source="t1ZBYJPDc_INg5JyRCaz-13" target="t1ZBYJPDc_INg5JyRCaz-15">
          <mxGeometry relative="1" as="geometry" />
        </mxCell>
        <mxCell id="t1ZBYJPDc_INg5JyRCaz-13" value="Membaca Buku" style="rounded=1;whiteSpace=wrap;html=1;" vertex="1" parent="1">
          <mxGeometry x="640" y="230" width="120" height="60" as="geometry" />
        </mxCell>
        <mxCell id="t1ZBYJPDc_INg5JyRCaz-15" value="Mengembalikan" style="rounded=1;whiteSpace=wrap;html=1;" vertex="1" parent="1">
          <mxGeometry x="840" y="230" width="120" height="60" as="geometry" />
        </mxCell>
        <mxCell id="t1ZBYJPDc_INg5JyRCaz-20" value="" style="edgeStyle=orthogonalEdgeStyle;rounded=0;orthogonalLoop=1;jettySize=auto;html=1;" edge="1" parent="1" source="t1ZBYJPDc_INg5JyRCaz-17" target="t1ZBYJPDc_INg5JyRCaz-19">
          <mxGeometry relative="1" as="geometry" />
        </mxCell>
        <mxCell id="t1ZBYJPDc_INg5JyRCaz-17" value="Memilih Buku" style="rounded=1;whiteSpace=wrap;html=1;" vertex="1" parent="1">
          <mxGeometry x="640" y="510" width="120" height="60" as="geometry" />
        </mxCell>
        <mxCell id="t1ZBYJPDc_INg5JyRCaz-19" value="Mengisi Form Peminjaman&lt;br&gt;/Pengembalian" style="rounded=1;whiteSpace=wrap;html=1;" vertex="1" parent="1">
          <mxGeometry x="840" y="510" width="120" height="60" as="geometry" />
        </mxCell>
        <mxCell id="t1ZBYJPDc_INg5JyRCaz-21" value="" style="endArrow=classic;html=1;rounded=0;" edge="1" parent="1" target="t1ZBYJPDc_INg5JyRCaz-15">
          <mxGeometry width="50" height="50" relative="1" as="geometry">
            <mxPoint x="900" y="510" as="sourcePoint" />
            <mxPoint x="950" y="460" as="targetPoint" />
          </mxGeometry>
        </mxCell>
        <mxCell id="t1ZBYJPDc_INg5JyRCaz-22" value="" style="endArrow=classic;html=1;rounded=0;" edge="1" parent="1">
          <mxGeometry width="50" height="50" relative="1" as="geometry">
            <mxPoint x="900" y="410" as="sourcePoint" />
            <mxPoint x="990" y="410" as="targetPoint" />
          </mxGeometry>
        </mxCell>
        <mxCell id="t1ZBYJPDc_INg5JyRCaz-23" value="Selesai" style="ellipse;whiteSpace=wrap;html=1;aspect=fixed;" vertex="1" parent="1">
          <mxGeometry x="990" y="370" width="80" height="80" as="geometry" />
        </mxCell>
      </root>
    </mxGraphModel>
  </diagram>
</mxfile>
